<svg width="16" height="10" viewBox="0 0 16 10" fill="none" xmlns="http://www.w3.org/2000/svg">
<path d="M10.4102 0.101562C10.3298 0.033854 10.2282 0 10.1055 0C9.95737 0 9.83037 0.059244 9.72457 0.177734L3.53565 7.81396L1.12989 5.5415C1.08757 5.49495 1.03679 5.45898 0.977535 5.43359C0.918295 5.4082 0.856935 5.39551 0.793455 5.39551C0.662275 5.39551 0.548015 5.44417 0.450685 5.5415L0.139648 5.85254C0.046549 5.94141 0 6.05355 0 6.18896C0 6.32438 0.046549 6.43864 0.139648 6.53174L3.13575 9.52783C3.28385 9.66323 3.45101 9.73093 3.63721 9.73093C3.74301 9.73093 3.84456 9.70773 3.9419 9.66113C4.03923 9.61463 4.11963 9.54903 4.1831 9.46433L10.8291 1.04736C10.9011 0.95003 10.937 0.85059 10.937 0.74902C10.937 0.59245 10.8736 0.46761 10.7466 0.374511L10.4102 0.101562ZM7.95996 7.77588C7.76953 7.65739 7.58757 7.5389 7.41407 7.42041C7.33366 7.34001 7.22786 7.2998 7.09667 7.2998C6.94857 7.2998 6.82797 7.3527 6.73487 7.4585L6.44287 7.78857C6.35823 7.8859 6.31592 7.99381 6.31592 8.1123C6.31592 8.24349 6.36246 8.35775 6.45556 8.45508L7.53467 9.52783C7.67008 9.66323 7.83512 9.73093 8.02979 9.73093C8.13558 9.73093 8.23715 9.70773 8.33448 9.66113C8.43181 9.61463 8.51433 9.54903 8.58204 9.46433L15.2027 1.07275C15.2746 0.98812 15.3106 0.88867 15.3106 0.77441C15.3106 0.63053 15.2513 0.5057 15.1328 0.399902L14.7774 0.126953C14.697 0.059244 14.5975 0.02539 14.479 0.02539C14.3352 0.02539 14.2103 0.084635 14.1045 0.203125L7.95996 7.77588Z" fill="#256EFF"/>
</svg>
